<svg id="图层_1" data-name="图层 1" xmlns="http://www.w3.org/2000/svg" width="96" height="22" viewBox="0 0 96 22"><defs><style>.cls-1{fill:#1bc9a8;}</style></defs><title>notado_logo96x22</title><path class="cls-1" d="M14.24.2H16V21.64a6,6,0,0,1-2-.08L1.82,3.49V21.72H0V.28C.46.27,1.74.11,2,.36L14.2,18.52h0ZM36,.2h1.78V5.82h6.17V7.6H37.74v4.79c0,.86.05,1.71.08,2.57a6,6,0,0,0,6.09,5v1.78a7.73,7.73,0,0,1-7.75-6,25.15,25.15,0,0,1-.2-5.42ZM76.7.2h1.78V10.49c0,1.88.17,4.1-.28,5.58a8,8,0,0,1-4.11,4.83,8.8,8.8,0,0,1-6.41.36,8.15,8.15,0,0,1-4.87-5.38,8,8,0,0,1,9.89-9.81c2.08.62,2.58,1.53,4,2.65ZM94.19.2H96V10.41c0,1.87.18,4.05-.28,5.54a8,8,0,0,1-4.15,4.94,8.8,8.8,0,0,1-6.41.36A8.16,8.16,0,0,1,80.3,16a8,8,0,0,1,9.85-9.93c2.12.63,2.59,1.55,4,2.69ZM25.71,5.82a9.54,9.54,0,0,1,3.52.44,8,8,0,0,1-1.66,15.43C21.64,22.74,16.76,16.41,19,10.8a8.25,8.25,0,0,1,4.79-4.59ZM61,21.72H59.3V18.79c-1.36,1.15-2.11,2.2-4.19,2.73a8.82,8.82,0,0,1-5-.4,8,8,0,0,1-4.47-4.55,8.14,8.14,0,0,1,2.53-9.06A8.75,8.75,0,0,1,51,6.06c5.31-1.56,9.22,2.59,10,6.57Q61,17.17,61,21.72Zm-35-14.16-1.66.32a6.4,6.4,0,0,0-3.84,3.88c-1.46,4.23,2.2,8.88,6.53,8.19a6.28,6.28,0,0,0,5.14-3.84C34.11,11.48,30.39,7.53,26.07,7.56Zm26.35,0L50.87,8a6.34,6.34,0,0,0-3.72,4,6.22,6.22,0,1,0,11.67-.63C57.82,9,55.82,7.57,52.41,7.6Zm17.41,0L68.2,8a6.38,6.38,0,0,0-3.48,3.56,6.22,6.22,0,1,0,11.55-.24C75.26,9,73.26,7.57,69.82,7.6Zm17.48,0L85.64,8a6.42,6.42,0,0,0-3.52,3.68c-1.59,4.22,2.16,9,6.53,8.27,3.58-.58,6.93-4.16,5.1-8.54C92.76,9,90.76,7.57,87.3,7.6Z"/></svg>